<?xml version="1.0" encoding="UTF-8" standalone="no"?>
<!DOCTYPE svg PUBLIC "-//W3C//DTD SVG 1.1//EN" "http://www.w3.org/Graphics/SVG/1.1/DTD/svg11.dtd">
<svg width="200px" height="100%" viewBox="0 0 1079 264" version="1.1" xmlns="http://www.w3.org/2000/svg" xmlns:xlink="http://www.w3.org/1999/xlink" xml:space="preserve" style="fill-rule:evenodd;clip-rule:evenodd;stroke-linejoin:round;stroke-miterlimit:1.41421;">
    <g transform="matrix(0.82164,0,0,0.82164,-148.751,-731.375)">
        <path d="M288.038,943.443C317.563,943.443 342.777,953.894 363.68,974.797C384.582,995.569 395.034,1020.78 395.034,1050.44L395.034,1103.94C395.034,1133.33 384.582,1158.48 363.68,1179.38C343.822,1199.11 320.045,1209.5 292.349,1210.54L292.349,1157.43L288.038,1157.43C258.513,1157.43 233.299,1146.98 212.396,1126.08C191.493,1105.18 181.042,1079.96 181.042,1050.44C181.042,1020.91 191.493,995.7 212.396,974.797C233.299,953.894 258.513,943.443 288.038,943.443Z" style="fill:white;fill-rule:nonzero;"/>
        <path d="M521.626,943.443L572.969,943.443C571.662,972.184 560.754,996.419 540.243,1016.15C533.188,1023.07 525.546,1028.69 517.315,1033L517.315,1050.44C517.315,1079.31 507.321,1104 487.333,1124.51C467.475,1145.42 443.241,1156.33 414.63,1157.24L414.63,1050.44C414.63,1020.91 425.082,995.7 445.984,974.797C466.887,953.894 492.101,943.443 521.626,943.443Z" style="fill:white;fill-rule:nonzero;"/>
        <path d="M689.763,1157.43C660.238,1157.43 635.024,1146.98 614.121,1126.08C593.218,1105.18 582.767,1079.96 582.767,1050.44C582.767,1021.57 592.761,996.81 612.749,976.169C632.476,955.658 656.711,944.749 685.452,943.443L685.452,1050.44L694.074,1050.44C694.074,1021.57 704.068,996.81 724.057,976.169C743.784,955.658 768.018,944.749 796.759,943.443L796.759,1050.44C796.759,1079.96 786.308,1105.18 765.405,1126.08C744.502,1146.98 719.288,1157.43 689.763,1157.43Z" style="fill:white;fill-rule:nonzero;"/>
        <path d="M923.352,1157.43C893.826,1157.43 868.612,1146.98 847.71,1126.08C826.807,1105.18 816.356,1079.96 816.356,1050.44L816.356,890.141C844.966,891.186 869.2,902.095 889.058,922.867C909.046,943.508 919.04,968.2 919.04,996.941L927.663,996.941L927.663,943.443C956.273,944.749 980.508,955.658 1000.37,976.169C1020.35,996.81 1030.35,1021.57 1030.35,1050.44C1030.35,1079.96 1019.9,1105.18 998.994,1126.08C978.091,1146.98 952.877,1157.43 923.352,1157.43Z" style="fill:white;fill-rule:nonzero;"/>
        <path d="M1154.98,1157.43C1125.45,1157.43 1100.24,1146.98 1079.34,1126.08C1058.44,1105.18 1047.98,1079.96 1047.98,1050.44L1047.98,890.141C1076.6,891.186 1100.83,902.095 1120.69,922.867C1140.67,943.508 1150.67,968.2 1150.67,996.941L1159.29,996.941L1159.29,943.443C1187.9,944.749 1212.14,955.658 1231.99,976.169C1251.98,996.81 1261.98,1021.57 1261.98,1050.44C1261.98,1079.96 1251.53,1105.18 1230.62,1126.08C1209.72,1146.98 1184.51,1157.43 1154.98,1157.43Z" style="fill:white;fill-rule:nonzero;"/>
        <path d="M1386.61,1157.43C1357.08,1157.43 1331.87,1146.98 1310.97,1126.08C1290.07,1105.18 1279.61,1079.96 1279.61,1050.44L1279.61,943.443C1308.22,944.749 1332.46,955.658 1352.32,976.169C1372.3,996.81 1382.3,1021.57 1382.3,1050.44L1390.92,1050.44C1390.92,1021.57 1400.91,996.81 1420.9,976.169C1440.63,955.658 1464.86,944.749 1493.61,943.443L1493.61,1103.94C1493.61,1133.33 1483.15,1158.48 1462.25,1179.38C1442.52,1199.11 1418.75,1209.56 1390.92,1210.74L1390.92,1157.43L1386.61,1157.43Z" style="fill:white;fill-rule:nonzero;"/>
    </g>
</svg>
